<svg xmlns="http://www.w3.org/2000/svg" fill="none" viewBox="0 0 26 26">
  <path stroke="#000" stroke-linecap="round" stroke-linejoin="round" stroke-width="2" d="M1 13c0 6.627 5.373 12 12 12s12-5.373 12-12S19.627 1 13 1 1 6.373 1 13Z" clip-rule="evenodd"/>
  <path stroke="#000" stroke-linecap="round" stroke-linejoin="round" stroke-width="2" d="M6.21 15.4a.8.8 0 0 0-.754 1.067 8 8 0 0 0 15.089 0 .8.8 0 0 0-.754-1.067H6.21Z" clip-rule="evenodd"/>
  <path stroke="#000" stroke-linecap="round" stroke-linejoin="round" stroke-width="2" d="M19.926 11.4a2.4 2.4 0 0 0-4.526 0m-4.8 0a2.4 2.4 0 0 0-4.526 0"/>
</svg>
